<!DOCTYPE svg PUBLIC "-//W3C//DTD SVG 20010904//EN" "http://www.w3.org/TR/2001/REC-SVG-20010904/DTD/svg10.dtd">
<svg version="1.0" xmlns="http://www.w3.org/2000/svg" width="1200px" height="1200px" viewBox="0 0 12000 6750" preserveAspectRatio="xMidYMid meet">
<g id="layer101" fill="#000000" stroke="none">
 <path d="M454 4996 c-3 -8 19 -70 50 -138 52 -118 83 -186 281 -628 48 -107 137 -305 196 -439 60 -134 131 -291 158 -350 70 -153 167 -367 266 -591 48 -107 117 -262 154 -345 259 -578 239 -539 304 -586 l40 -29 4784 0 c4337 0 4784 1 4790 16 3 8 -16 63 -42 122 -103 230 -318 711 -355 792 -36 79 -282 627 -422 940 -33 74 -93 207 -133 295 -40 88 -100 221 -133 295 -267 603 -262 594 -319 633 l-39 27 -4787 0 c-4097 0 -4788 -2 -4793 -14z m9535 -183 c11 -10 40 -63 65 -118 24 -55 76 -172 116 -260 110 -245 196 -436 265 -590 34 -77 104 -232 155 -345 118 -263 123 -274 182 -405 28 -60 56 -123 63 -140 8 -16 37 -82 65 -145 28 -63 55 -124 60 -135 104 -223 224 -497 227 -522 4 -25 -1 -38 -21 -57 l-25 -26 -4580 0 c-3439 0 -4586 3 -4605 12 -14 6 -34 30 -45 52 -25 54 -139 307 -264 586 -55 124 -121 272 -147 330 -26 58 -87 193 -135 300 -48 107 -119 265 -158 350 -38 85 -99 220 -134 300 -36 80 -93 208 -128 285 -35 77 -95 211 -134 299 -39 87 -71 167 -71 178 0 10 11 30 25 43 l24 25 4589 0 c4357 0 4591 -1 4611 -17z"/>
 <path d="M4980 4714 c-14 -2 -59 -9 -100 -15 -152 -21 -336 -74 -785 -224 -253 -85 -516 -167 -585 -184 -401 -97 -726 -79 -1234 69 -98 28 -180 49 -183 47 -13 -14 22 -31 210 -105 298 -118 465 -170 687 -214 99 -19 146 -23 330 -23 203 1 224 2 365 32 180 38 365 93 700 208 465 160 648 202 920 212 190 7 358 -7 609 -48 251 -42 252 -33 6 64 -333 132 -517 176 -760 182 -85 2 -166 2 -180 -1z"/>
 <path d="M7660 4584 c-19 -2 -80 -9 -135 -15 -349 -36 -724 -110 -1650 -327 -891 -209 -1264 -267 -1800 -279 -538 -12 -993 37 -1784 192 -183 36 -336 64 -339 61 -6 -7 -16 -4 228 -75 643 -188 1027 -272 1490 -323 181 -20 789 -17 970 5 405 49 784 121 1545 297 375 87 695 154 950 200 112 20 399 59 530 72 193 19 720 16 920 -6 409 -44 769 -113 1325 -255 169 -44 217 -53 199 -37 -12 10 -428 160 -644 232 -362 120 -654 189 -1010 240 -105 15 -704 28 -795 18z"/>
 <path d="M1657 3898 c-146 -150 -263 -276 -259 -280 4 -4 363 -100 797 -214 435 -114 794 -211 799 -215 8 -7 -182 -312 -239 -385 l-20 -25 -130 24 c-108 20 -132 22 -141 11 -15 -18 -37 -155 -27 -165 7 -7 1277 -239 1306 -239 6 0 95 118 196 261 102 144 190 263 195 265 6 2 223 -34 481 -80 259 -47 474 -81 478 -77 11 11 -33 225 -77 377 -80 279 -196 469 -322 529 -47 22 -341 74 -449 80 -49 2 -187 7 -305 10 -489 12 -990 104 -1690 311 -213 62 -260 75 -296 81 -29 5 -45 -10 -297 -269z m1956 -839 c188 -45 346 -85 351 -90 11 -10 -252 -359 -271 -359 -28 0 -698 122 -705 129 -10 9 252 401 269 401 8 0 168 -37 356 -81z"/>
 <path d="M6275 4032 c-178 -45 -313 -150 -385 -296 -72 -148 -100 -325 -81 -521 42 -429 262 -739 607 -854 228 -77 470 -58 650 50 114 69 212 208 249 354 20 78 19 95 -4 95 -23 0 -210 18 -268 25 l-42 6 -12 -43 c-37 -137 -106 -204 -239 -228 -198 -36 -405 85 -504 293 -72 152 -101 296 -94 462 6 134 29 202 94 274 174 193 485 117 611 -149 29 -61 43 -79 58 -79 11 0 88 10 170 23 175 26 170 19 107 146 -103 208 -261 349 -473 421 -85 29 -108 33 -234 35 -110 3 -155 0 -210 -14z"/>
 <path d="M7370 4008 c0 -7 21 -110 46 -228 24 -118 58 -278 74 -355 16 -77 47 -228 70 -335 44 -210 123 -587 143 -685 l13 -60 1572 -3 c865 -1 1572 0 1572 2 0 3 -30 68 -67 146 l-66 140 -1362 0 -1362 0 -38 188 c-21 103 -40 193 -42 200 -4 9 80 12 401 12 223 0 406 3 406 8 0 4 -12 67 -27 140 l-27 132 -407 0 -406 0 -21 98 c-11 53 -44 213 -74 354 l-53 258 -172 0 c-132 0 -173 -3 -173 -12z"/>
 <path d="M9036 3823 c-4 -109 -14 -362 -21 -563 -8 -201 -15 -400 -15 -442 l0 -78 130 0 130 0 0 258 c0 143 3 340 7 440 l6 181 112 -227 c61 -125 158 -323 215 -439 l104 -213 142 0 143 0 5 43 c3 23 8 143 11 267 3 124 8 302 12 397 l6 172 184 -387 c102 -213 196 -411 208 -439 l24 -53 130 0 130 0 -53 113 c-59 123 -282 585 -454 940 l-111 227 -135 0 -136 0 0 -42 c-1 -46 -29 -860 -30 -868 -1 -3 -104 201 -231 453 l-229 457 -139 0 -138 0 -7 -197z"/>
 </g>

</svg>