<svg xmlns="http://www.w3.org/2000/svg" viewBox="0 0 256 248.07736943907156" clip-path="url(#clip)" width="512" height="496.1547388781431"><defs><clipPath id="clip" clipPathUnits="objectBoundingBox"><rect x="0" y="0" width="256" height="248.07736943907156"/></clipPath></defs><rect x="0" y="0" width="256" height="248.07736943907156" fill="rgb(255, 255, 255)"/><path d="M103,-174L200,37L61,37Z" fill="rgb(27, 27, 26)" fill-opacity="0.58"/><path d="M240,55L36,55L121,486Z" fill="rgb(236, 122, 87)" fill-opacity="0.86"/><path d="M86,200L154,205L91,163Z" fill="rgb(255, 255, 255)" fill-opacity="0.63"/><path d="M176,202L127,137L183,135Z" fill="rgb(253, 235, 227)" fill-opacity="0.95"/><path d="M56,142L125,241L65,229Z" fill="rgb(225, 65, 26)" fill-opacity="0.79"/><path d="M131,-2L143,61L119,30Z" fill="rgb(255, 255, 255)" fill-opacity="0.57"/><path d="M88,17L67,39L66,10Z" fill="rgb(0, 0, 0)" fill-opacity="0.60"/><path d="M207,166L127,246L204,226Z" fill="rgb(228, 59, 5)" fill-opacity="0.68"/><path d="M-73,-44L73,5L209,5Z" fill="rgb(255, 255, 255)" fill-opacity="1.00"/><path d="M48,46L58,163L-91,9Z" fill="rgb(254, 254, 253)" fill-opacity="0.99"/><path d="M177,199L115,207L181,165Z" fill="rgb(255, 255, 255)" fill-opacity="0.76"/><path d="M78,91L87,121L204,92Z" fill="rgb(252, 238, 235)" fill-opacity="0.91"/><path d="M124,155L79,156L94,106Z" fill="rgb(253, 250, 253)" fill-opacity="0.65"/><path d="M79,20L96,0L96,39Z" fill="rgb(0, 0, 0)" fill-opacity="0.61"/><path d="M271,76L209,164L219,28Z" fill="rgb(254, 253, 253)" fill-opacity="1.00"/><path d="M179,17L170,-11L172,42Z" fill="rgb(255, 255, 255)" fill-opacity="0.76"/><path d="M158,39L141,-17L134,32Z" fill="rgb(0, 0, 0)" fill-opacity="0.43"/><path d="M173,87L134,109L189,112Z" fill="rgb(255, 255, 255)" fill-opacity="0.70"/><path d="M37,260L144,249L66,227Z" fill="rgb(254, 251, 250)" fill-opacity="0.99"/><path d="M133,5L99,5L117,21Z" fill="rgb(0, 0, 0)" fill-opacity="0.59"/><path d="M209,122L98,108L113,137Z" fill="rgb(230, 38, 0)" fill-opacity="0.47"/><path d="M173,13L160,3L166,43Z" fill="rgb(0, 0, 0)" fill-opacity="0.63"/><path d="M97,6L97,58L113,18Z" fill="rgb(255, 255, 255)" fill-opacity="0.72"/><path d="M149,56L208,151L217,56Z" fill="rgb(229, 49, 0)" fill-opacity="0.51"/><path d="M155,151L102,184L164,182Z" fill="rgb(234, 66, 1)" fill-opacity="0.61"/><path d="M177,87L155,112L189,105Z" fill="rgb(255, 255, 255)" fill-opacity="0.61"/><path d="M190,5L213,28L186,29Z" fill="rgb(255, 255, 255)" fill-opacity="0.68"/><path d="M89,142L52,46L62,221Z" fill="rgb(219, 31, 0)" fill-opacity="0.49"/><path d="M187,37L187,-6L176,31Z" fill="rgb(0, 0, 0)" fill-opacity="0.62"/><path d="M87,-22L87,32L72,52Z" fill="rgb(255, 255, 255)" fill-opacity="0.56"/><path d="M127,246L161,213L96,202Z" fill="rgb(228, 63, 12)" fill-opacity="0.69"/><path d="M142,243L222,222L84,321Z" fill="rgb(254, 252, 251)" fill-opacity="0.96"/><path d="M41,59L163,55L124,94Z" fill="rgb(223, 51, 9)" fill-opacity="0.66"/><path d="M66,-7L66,37L0,116Z" fill="rgb(254, 254, 254)" fill-opacity="1.00"/><path d="M134,136L102,106L105,136Z" fill="rgb(221, 62, 21)" fill-opacity="0.58"/><path d="M158,33L165,1L149,26Z" fill="rgb(0, 0, 0)" fill-opacity="0.48"/><path d="M86,142L132,134L144,158Z" fill="rgb(255, 255, 255)" fill-opacity="0.52"/><path d="M104,156L148,156L109,182Z" fill="rgb(222, 40, 0)" fill-opacity="0.56"/><path d="M144,34L134,39L137,1Z" fill="rgb(0, 0, 0)" fill-opacity="0.53"/><path d="M138,57L149,36L146,18Z" fill="rgb(255, 255, 254)" fill-opacity="0.62"/><path d="M107,162L68,171L55,140Z" fill="rgb(226, 74, 35)" fill-opacity="0.77"/><path d="M64,129L105,55L47,59Z" fill="rgb(225, 68, 28)" fill-opacity="0.68"/><path d="M66,18L99,30L88,15Z" fill="rgb(0, 0, 0)" fill-opacity="0.68"/><path d="M195,56L178,181L209,175Z" fill="rgb(237, 78, 10)" fill-opacity="0.57"/><path d="M88,5L76,4L76,19Z" fill="rgb(255, 255, 255)" fill-opacity="0.68"/><path d="M111,5L122,28L112,41Z" fill="rgb(0, 0, 0)" fill-opacity="0.70"/><path d="M203,26L182,34L203,39Z" fill="rgb(0, 0, 0)" fill-opacity="0.64"/><path d="M90,198L140,211L150,184Z" fill="rgb(254, 248, 247)" fill-opacity="0.67"/><path d="M50,69L11,103L48,43Z" fill="rgb(254, 253, 253)" fill-opacity="0.97"/><path d="M180,197L166,158L148,205Z" fill="rgb(255, 255, 255)" fill-opacity="0.59"/><path d="M97,14L125,53L97,42Z" fill="rgb(255, 255, 255)" fill-opacity="0.74"/><path d="M177,24L180,38L206,32Z" fill="rgb(0, 0, 0)" fill-opacity="0.51"/><path d="M155,19L159,-1L142,-4Z" fill="rgb(255, 255, 255)" fill-opacity="0.72"/><path d="M87,156L82,104L116,150Z" fill="rgb(253, 246, 245)" fill-opacity="0.70"/><path d="M156,91L134,113L194,91Z" fill="rgb(255, 255, 255)" fill-opacity="0.61"/><path d="M109,6L132,5L130,14Z" fill="rgb(0, 0, 0)" fill-opacity="0.66"/><path d="M120,43L147,57L122,9Z" fill="rgb(255, 255, 255)" fill-opacity="0.69"/><path d="M103,5L102,12L133,12Z" fill="rgb(0, 0, 0)" fill-opacity="0.68"/><path d="M86,169L106,164L111,195Z" fill="rgb(252, 240, 239)" fill-opacity="0.77"/><path d="M181,135L104,136L194,106Z" fill="rgb(242, 88, 4)" fill-opacity="0.45"/><path d="M135,155L162,157L156,184Z" fill="rgb(241, 93, 24)" fill-opacity="0.63"/><path d="M149,28L135,3L152,17Z" fill="rgb(0, 0, 0)" fill-opacity="0.54"/><path d="M104,93L86,107L113,113Z" fill="rgb(253, 246, 246)" fill-opacity="0.48"/><path d="M66,15L84,24L66,2Z" fill="rgb(0, 0, 0)" fill-opacity="0.60"/><path d="M96,111L120,89L189,111Z" fill="rgb(254, 252, 252)" fill-opacity="0.69"/><path d="M149,34L162,0L158,34Z" fill="rgb(0, 0, 0)" fill-opacity="0.68"/><path d="M110,42L111,12L97,15Z" fill="rgb(255, 255, 255)" fill-opacity="0.78"/><path d="M85,23L90,54L75,27Z" fill="rgb(254, 253, 252)" fill-opacity="0.79"/><path d="M132,9L108,-63L169,-10Z" fill="rgb(255, 255, 252)" fill-opacity="0.70"/><path d="M134,188L159,182L112,183Z" fill="rgb(230, 54, 0)" fill-opacity="0.51"/><path d="M105,91L183,55L170,91Z" fill="rgb(235, 69, 0)" fill-opacity="0.49"/><path d="M218,57L206,104L129,59Z" fill="rgb(232, 85, 37)" fill-opacity="0.76"/><path d="M156,110L105,135L102,112Z" fill="rgb(228, 78, 31)" fill-opacity="0.56"/><path d="M114,92L79,89L89,76Z" fill="rgb(222, 49, 9)" fill-opacity="0.53"/><path d="M31,-27L58,10L77,0Z" fill="rgb(252, 252, 252)" fill-opacity="0.95"/><path d="M83,120L53,105L78,62Z" fill="rgb(226, 74, 36)" fill-opacity="0.86"/><path d="M147,14L135,37L135,4Z" fill="rgb(15, 0, 0)" fill-opacity="0.56"/><path d="M177,166L184,136L103,136Z" fill="rgb(255, 255, 255)" fill-opacity="0.71"/><path d="M155,37L137,4L149,6Z" fill="rgb(0, 2, 6)" fill-opacity="0.62"/><path d="M77,9L68,40L69,4Z" fill="rgb(0, 0, 0)" fill-opacity="0.58"/><path d="M204,209L208,155L191,231Z" fill="rgb(224, 68, 34)" fill-opacity="0.65"/><path d="M134,42L121,18L136,7Z" fill="rgb(255, 255, 255)" fill-opacity="0.66"/><path d="M88,179L84,130L64,224Z" fill="rgb(226, 74, 35)" fill-opacity="0.82"/><path d="M187,39L177,14L181,2Z" fill="rgb(0, 0, 0)" fill-opacity="0.71"/><path d="M55,130L100,226L50,53Z" fill="rgb(227, 78, 40)" fill-opacity="0.85"/><path d="M163,17L158,28L162,59Z" fill="rgb(255, 255, 255)" fill-opacity="0.61"/><path d="M264,88L218,27L198,39Z" fill="rgb(254, 254, 254)" fill-opacity="0.97"/><path d="M187,8L187,27L212,30Z" fill="rgb(250, 255, 255)" fill-opacity="0.70"/><path d="M141,207L129,245L173,200Z" fill="rgb(239, 97, 38)" fill-opacity="0.82"/><path d="M197,5L121,5L198,-96Z" fill="rgb(255, 255, 255)" fill-opacity="1.00"/><path d="M178,35L175,-37L170,52Z" fill="rgb(255, 255, 253)" fill-opacity="0.72"/><path d="M177,212L181,160L206,166Z" fill="rgb(238, 97, 39)" fill-opacity="0.89"/><path d="M111,14L122,17L112,36Z" fill="rgb(0, 0, 0)" fill-opacity="0.55"/><path d="M157,154L112,137L121,156Z" fill="rgb(255, 255, 255)" fill-opacity="0.48"/><path d="M133,161L136,188L166,153Z" fill="rgb(243, 106, 40)" fill-opacity="0.46"/><path d="M152,17L146,-34L155,28Z" fill="rgb(237, 240, 241)" fill-opacity="0.74"/><path d="M73,53L29,58L-7,30Z" fill="rgb(254, 254, 254)" fill-opacity="0.95"/><path d="M148,32L158,17L152,37Z" fill="rgb(0, 0, 0)" fill-opacity="0.59"/><path d="M101,11L101,4L105,13Z" fill="rgb(2, 0, 0)" fill-opacity="0.60"/><path d="M201,111L193,145L150,111Z" fill="rgb(241, 99, 30)" fill-opacity="0.50"/></svg>