<!DOCTYPE svg PUBLIC "-//W3C//DTD SVG 20010904//EN" "http://www.w3.org/TR/2001/REC-SVG-20010904/DTD/svg10.dtd">
<svg version="1.0" xmlns="http://www.w3.org/2000/svg" viewBox="0 0 11000 11000">
<g id="layer101" fill="#010101" stroke="none">
<path d="M3540 10294 c-118 -8 -274 -25 -284 -32 -6 -4 -47 -14 -91 -24 -155 -32 -220 -49 -229 -58 -6 -6 -18 -10 -28 -10 -45 0 -323 -105 -438 -165 -50 -26 -186 -93 -240 -119 -30 -14 -76 -38 -102 -53 -26 -16 -73 -43 -105 -62 -104 -61 -301 -191 -336 -223 -12 -11 -53 -44 -92 -73 -73 -56 -81 -63 -180 -145 -33 -27 -73 -60 -88 -72 -50 -41 -339 -327 -351 -347 -6 -11 -37 -49 -68 -84 -32 -35 -58 -69 -58 -76 0 -6 -5 -11 -10 -11 -6 0 -13 -8 -17 -17 -3 -10 -20 -36 -38 -58 -18 -22 -38 -51 -45 -65 -7 -14 -23 -36 -35 -50 -12 -14 -29 -37 -36 -51 -74 -142 -119 -236 -119 -249 0 -9 -7 -25 -15 -36 -8 -10 -15 -25 -15 -32 0 -7 -8 -32 -19 -55 -10 -23 -22 -57 -26 -74 -3 -18 -10 -33 -15 -33 -4 0 -13 -37 -20 -82 -7 -46 -18 -89 -24 -97 -15 -19 -15 -383 0 -402 7 -8 15 -30 19 -49 4 -19 18 -52 31 -72 13 -21 24 -41 24 -46 0 -12 71 -75 107 -95 19 -10 53 -17 86 -17 50 0 58 3 86 35 17 20 31 45 31 55 0 17 7 20 43 20 23 0 55 -7 71 -15 15 -8 33 -15 40 -15 6 0 42 -16 80 -35 37 -19 76 -35 85 -35 9 0 21 -4 27 -10 5 -5 35 -23 67 -40 31 -16 83 -44 114 -60 32 -17 61 -37 66 -45 4 -8 13 -15 19 -15 5 0 27 -13 47 -29 34 -26 60 -42 121 -73 14 -6 53 -34 87 -60 35 -26 66 -48 70 -48 4 0 33 -20 64 -45 32 -25 60 -45 64 -45 4 0 27 -18 52 -40 25 -22 50 -40 55 -40 5 0 24 -16 42 -35 19 -19 38 -35 44 -35 21 0 261 -248 330 -342 40 -53 72 -99 72 -103 0 -3 15 -27 32 -53 38 -54 52 -77 70 -112 7 -14 15 -27 18 -30 6 -6 28 -44 50 -86 9 -16 26 -44 38 -61 12 -17 22 -36 22 -42 0 -6 4 -11 8 -11 9 0 35 -60 33 -76 -1 -6 15 -42 34 -80 19 -37 35 -76 35 -86 0 -10 4 -18 8 -18 4 0 14 -17 21 -37 13 -39 23 -63 60 -144 12 -25 21 -52 21 -60 0 -8 7 -23 15 -33 8 -11 15 -27 15 -35 0 -9 7 -29 15 -45 8 -15 15 -35 15 -42 0 -18 14 -18 30 1 7 8 17 15 22 15 5 0 146 131 313 290 167 160 308 290 313 290 6 0 16 17 22 38 19 59 48 100 97 137 25 19 60 56 77 82 18 27 56 83 85 126 29 43 71 117 93 165 22 48 47 95 55 104 29 33 103 172 109 205 3 18 29 70 56 116 28 45 60 102 73 127 13 26 37 61 54 79 28 29 60 94 93 186 6 17 27 52 46 78 19 26 40 67 47 91 8 24 21 58 30 76 9 18 24 56 32 84 8 28 19 56 24 62 5 6 16 41 24 79 9 38 23 84 31 103 14 34 24 82 44 212 6 36 17 88 25 115 8 28 22 100 31 160 20 131 29 188 43 276 6 36 11 137 12 225 1 165 2 427 1 479 -1 17 0 59 0 95 3 127 0 241 -8 258 -4 9 -6 27 -5 39 1 11 -2 24 -8 27 -5 4 -13 32 -17 63 -3 31 -13 68 -20 82 -8 14 -14 37 -14 51 0 14 -6 36 -13 50 -7 14 -19 44 -26 68 -8 23 -18 42 -22 42 -4 0 -10 13 -14 29 -16 73 -189 251 -285 294 -25 11 -56 25 -70 32 -14 7 -42 16 -62 20 -21 4 -38 11 -38 15 0 4 -28 13 -62 20 -35 6 -68 16 -73 20 -23 19 -435 43 -575 34z"/>
<path d="M4903 8648 c0 -128 -6 -264 -12 -303 -15 -86 -25 -159 -45 -297 -8 -58 -22 -127 -30 -153 -9 -26 -21 -77 -27 -113 -6 -37 -14 -87 -18 -112 -4 -25 -14 -67 -24 -95 -9 -27 -25 -79 -36 -115 -29 -98 -57 -172 -79 -216 -10 -21 -22 -56 -26 -76 -4 -20 -22 -60 -40 -87 -19 -27 -49 -78 -67 -113 l-34 -63 -6 -290 c-4 -159 -11 -564 -17 -900 l-11 -609 21 -23 c16 -17 33 -23 66 -23 38 0 60 11 187 95 79 52 147 95 152 95 4 0 30 16 57 35 27 19 55 35 61 35 7 0 20 9 31 21 10 12 39 30 64 42 25 11 53 27 63 35 9 8 25 20 36 26 10 6 60 39 110 74 51 34 98 62 105 62 7 0 21 9 31 20 10 11 22 20 28 20 5 0 30 17 56 38 69 57 129 95 196 124 61 26 206 119 260 167 17 15 50 40 75 56 25 16 72 49 106 75 34 26 106 73 160 105 54 31 223 140 374 240 151 100 322 213 380 250 149 96 220 142 340 221 58 38 110 71 115 74 6 3 64 40 130 84 66 43 158 103 205 134 47 30 114 74 150 97 36 24 103 67 150 97 79 51 200 129 360 233 36 23 106 68 155 100 50 32 146 95 215 140 69 45 166 108 215 140 50 32 126 81 170 110 44 29 112 72 150 97 372 240 355 226 355 283 0 64 -24 80 -144 95 -55 6 -123 9 -152 5 -33 -4 -54 -2 -59 4 -4 7 -57 11 -140 11 -78 0 -136 4 -140 10 -4 6 -62 10 -140 10 -78 0 -136 4 -140 10 -4 6 -75 10 -180 10 -105 0 -176 4 -180 10 -4 6 -65 10 -150 10 -85 0 -146 4 -150 10 -4 6 -62 10 -140 10 -78 0 -136 4 -140 10 -4 6 -65 10 -150 10 -85 0 -146 4 -150 10 -4 6 -72 10 -170 10 -98 0 -166 4 -170 10 -4 6 -62 10 -140 10 -78 0 -136 4 -140 10 -4 6 -65 10 -150 10 -85 0 -146 4 -150 10 -4 6 -72 10 -170 10 -98 0 -166 4 -170 10 -4 6 -68 10 -160 10 -92 0 -156 4 -160 10 -4 6 -55 10 -120 10 -65 0 -116 4 -120 10 -4 6 -68 10 -160 10 -92 0 -156 4 -160 10 -4 6 -68 10 -160 10 -92 0 -156 4 -160 10 -4 6 -56 10 -123 10 l-117 0 -2 -232z"/>
<path d="M9215 8010 c-187 -137 -364 -266 -392 -287 -29 -21 -85 -62 -125 -91 -40 -29 -161 -117 -268 -196 -107 -78 -361 -263 -565 -412 -203 -149 -397 -287 -430 -307 -34 -20 -75 -52 -93 -71 -18 -20 -40 -36 -48 -36 -9 0 -34 -15 -56 -34 -22 -19 -55 -42 -73 -50 -18 -9 -38 -22 -45 -31 -7 -8 -18 -15 -25 -15 -7 0 -18 -7 -25 -16 -18 -21 -128 -104 -139 -104 -4 0 -16 -9 -26 -20 -10 -11 -23 -20 -30 -20 -6 0 -24 -13 -40 -30 -16 -16 -34 -30 -40 -30 -6 0 -24 -13 -40 -30 -16 -16 -34 -30 -40 -30 -6 0 -24 -13 -40 -30 -16 -16 -34 -30 -40 -30 -7 0 -20 -9 -30 -20 -10 -11 -23 -20 -30 -20 -6 0 -24 -13 -40 -30 -16 -16 -34 -30 -40 -30 -7 0 -20 -9 -30 -20 -10 -11 -23 -20 -30 -20 -6 0 -24 -13 -40 -30 -16 -16 -34 -30 -40 -30 -6 0 -24 -13 -40 -30 -16 -16 -34 -30 -40 -30 -6 0 -24 -13 -40 -30 -16 -16 -34 -30 -40 -30 -7 0 -20 -9 -30 -20 -10 -11 -23 -20 -30 -20 -6 0 -24 -13 -40 -30 -16 -16 -34 -30 -40 -30 -6 0 -24 -13 -40 -30 -16 -16 -34 -30 -40 -30 -7 0 -20 -9 -30 -20 -10 -11 -23 -20 -30 -20 -6 0 -24 -13 -40 -30 -16 -16 -34 -30 -40 -30 -6 0 -24 -13 -40 -30 -16 -16 -34 -30 -40 -30 -7 0 -20 -9 -30 -20 -10 -11 -23 -20 -30 -20 -6 0 -24 -13 -40 -30 -16 -16 -34 -30 -40 -30 -7 0 -20 -9 -30 -20 -10 -11 -23 -20 -30 -20 -6 0 -24 -13 -40 -30 -16 -16 -34 -30 -40 -30 -6 0 -24 -13 -40 -30 -16 -16 -34 -30 -40 -30 -6 0 -24 -13 -40 -30 -16 -16 -34 -30 -40 -30 -6 0 -24 -13 -40 -30 -16 -17 -34 -30 -40 -30 -7 0 -20 -9 -30 -20 -10 -11 -23 -20 -30 -20 -6 0 -24 -13 -40 -30 -16 -16 -34 -30 -40 -30 -6 0 -24 -13 -40 -30 -16 -16 -34 -30 -40 -30 -7 0 -20 -9 -30 -20 -10 -11 -26 -20 -35 -20 -17 0 -70 -49 -70 -66 0 -5 -80 -68 -177 -138 -277 -201 -263 -188 -263 -250 0 -42 5 -57 23 -74 13 -12 28 -22 34 -22 5 0 45 -25 89 -57 43 -31 115 -81 159 -111 44 -31 98 -68 120 -84 22 -16 76 -53 120 -83 44 -30 112 -77 150 -104 39 -28 106 -75 150 -105 44 -30 125 -86 180 -125 55 -38 138 -96 185 -128 95 -66 210 -145 380 -264 63 -44 144 -100 180 -125 36 -24 117 -80 180 -125 63 -44 151 -105 195 -135 44 -30 125 -86 180 -125 55 -38 136 -95 180 -125 44 -30 114 -79 155 -108 42 -29 114 -79 160 -111 47 -32 114 -78 149 -103 67 -46 81 -45 81 5 0 13 9 51 19 85 11 35 31 104 46 153 14 50 31 104 37 120 5 17 13 46 18 65 4 19 17 60 30 90 12 30 30 75 39 100 30 76 72 159 87 171 8 6 14 17 14 24 0 7 14 39 30 70 17 31 30 63 30 70 0 7 11 29 25 49 14 20 28 49 31 64 4 15 14 41 22 57 22 45 94 155 101 155 3 0 17 17 31 37 25 36 55 72 115 136 100 105 230 165 375 174 77 5 271 -20 332 -43 24 -8 57 -19 73 -24 65 -17 347 -151 390 -185 20 -15 158 -120 203 -153 31 -22 163 -147 259 -244 15 -15 29 -25 31 -23 2 2 -1 136 -8 297 -6 161 -16 451 -21 643 -14 525 -27 888 -39 1105 -6 107 -15 314 -20 460 -5 146 -14 294 -20 329 -13 76 -14 186 -5 490 5 156 3 227 -4 234 -8 8 -11 139 -11 417 -1 324 -3 410 -14 430 -11 20 -13 71 -9 258 l6 233 -28 29 c-57 59 -62 57 -440 -220z"/>
<path d="M867 7091 c2 -69 8 -148 14 -174 5 -26 9 -86 9 -132 0 -46 5 -128 10 -182 6 -54 15 -186 21 -293 6 -107 15 -249 19 -315 4 -66 12 -201 18 -300 6 -99 14 -211 17 -250 4 -38 11 -142 16 -230 6 -88 14 -218 19 -290 5 -71 16 -247 25 -390 9 -143 21 -323 26 -400 5 -77 13 -196 18 -265 5 -69 13 -219 20 -335 6 -115 16 -246 21 -291 6 -44 10 -116 10 -159 0 -43 4 -115 10 -159 5 -45 15 -173 21 -286 12 -209 21 -353 38 -610 5 -80 17 -260 26 -400 9 -140 21 -316 26 -390 5 -74 12 -183 15 -242 5 -92 9 -109 28 -126 29 -26 92 -40 216 -47 58 -3 139 -10 180 -15 41 -5 131 -15 200 -21 69 -6 166 -15 215 -20 208 -20 408 -39 520 -48 66 -5 156 -15 200 -20 44 -6 139 -16 210 -22 72 -6 166 -15 210 -19 44 -4 145 -13 225 -19 80 -7 165 -16 190 -21 25 -5 108 -13 185 -16 l140 -6 23 25 c36 39 52 234 52 659 0 220 4 349 10 353 6 4 10 108 10 280 0 172 4 276 10 280 6 4 10 112 10 290 0 178 4 286 10 290 6 4 10 98 10 250 0 152 4 246 10 250 6 4 10 108 10 280 0 172 4 276 10 280 6 4 10 102 10 260 0 158 4 256 10 260 6 4 10 115 10 300 0 185 4 296 10 300 6 4 10 108 10 280 0 172 4 276 10 280 6 4 10 105 10 270 0 165 4 266 10 270 6 4 10 86 10 213 l0 206 -18 -34 c-48 -90 -77 -137 -98 -160 -12 -14 -32 -50 -44 -80 -20 -51 -81 -160 -136 -240 -13 -19 -34 -51 -46 -70 -13 -19 -53 -64 -90 -100 -44 -43 -74 -82 -88 -117 -13 -29 -26 -53 -31 -53 -5 0 -54 -44 -111 -97 -56 -54 -149 -142 -207 -196 -59 -54 -151 -142 -206 -195 -115 -111 -143 -132 -182 -132 -42 0 -51 10 -79 90 -31 90 -156 387 -190 452 -13 26 -24 54 -24 61 0 22 -49 113 -77 142 -7 7 -20 32 -29 56 -10 24 -21 46 -24 49 -4 3 -22 32 -41 65 -18 33 -36 62 -39 65 -4 3 -20 28 -35 55 -16 28 -32 52 -35 55 -3 3 -18 25 -35 50 -36 55 -43 64 -94 119 -23 24 -41 47 -41 51 0 12 -81 91 -150 148 -67 54 -130 107 -155 130 -7 6 -17 12 -20 12 -4 0 -22 12 -40 28 -17 15 -42 34 -54 42 -42 28 -126 89 -142 103 -8 7 -51 35 -95 62 -146 89 -209 129 -215 139 -8 11 -100 62 -189 106 -36 18 -66 36 -68 41 -2 5 -12 9 -22 9 -11 0 -50 15 -87 34 -37 19 -84 38 -104 44 l-36 10 4 -127z"/>
<path d="M4592 3943 l-43 -36 6 -121 c6 -111 1 -190 -25 -411 -5 -38 -13 -113 -19 -165 -5 -52 -12 -111 -16 -130 -3 -19 -10 -87 -16 -150 -6 -63 -14 -149 -19 -190 -5 -41 -16 -145 -25 -230 -18 -167 -28 -256 -44 -390 -6 -47 -17 -155 -26 -240 -9 -85 -20 -189 -25 -230 -16 -144 -29 -256 -39 -360 -6 -58 -14 -125 -17 -150 -8 -60 -19 -163 -39 -350 -9 -85 -20 -191 -26 -235 -5 -44 -12 -118 -15 -165 -5 -80 -4 -86 18 -108 l24 -22 305 12 c167 6 421 12 564 13 264 2 856 18 1065 29 63 4 300 11 525 17 549 13 905 25 911 31 2 3 -3 22 -11 42 -19 45 -13 69 21 84 34 16 34 16 22 -16 -9 -24 -6 -40 24 -108 20 -43 41 -97 48 -119 7 -22 23 -60 35 -85 12 -25 31 -71 41 -102 l18 -58 68 0 c73 0 72 0 158 80 21 19 57 51 80 70 24 19 61 52 84 74 34 31 185 139 254 181 9 6 41 26 72 46 118 77 321 165 470 203 97 25 355 70 460 81 36 3 76 8 90 9 206 28 239 30 398 22 117 -5 153 -18 148 -55 -5 -43 10 -69 53 -91 52 -26 93 -25 150 2 48 23 56 29 109 81 47 45 156 277 167 352 1 11 5 36 9 55 25 135 30 358 12 475 -9 55 -18 116 -21 135 -17 106 -53 234 -114 406 -62 170 -59 164 -136 318 -38 78 -74 153 -80 167 -17 45 -247 403 -279 434 -10 10 -36 43 -59 74 -57 77 -160 194 -231 260 -129 123 -144 135 -216 190 -25 19 -49 39 -55 45 -14 16 -141 98 -197 128 -48 26 -226 105 -288 127 -87 32 -181 49 -310 57 -137 9 -237 -20 -349 -101 -24 -17 -85 -79 -123 -125 -21 -25 -49 -58 -63 -75 -52 -62 -103 -144 -124 -199 -12 -32 -30 -74 -41 -94 -29 -57 -80 -170 -80 -179 0 -5 -13 -27 -29 -49 -16 -21 -39 -64 -51 -94 -12 -30 -31 -75 -41 -99 -21 -45 -36 -91 -65 -191 -8 -30 -24 -82 -35 -115 -10 -33 -28 -94 -39 -135 -12 -41 -28 -100 -36 -130 -30 -107 -55 -305 -53 -430 2 -187 7 -299 18 -385 11 -90 7 -185 -9 -185 -14 0 -30 68 -36 160 -7 87 -25 140 -47 140 -7 0 -44 32 -82 70 -38 39 -74 70 -80 70 -6 0 -42 32 -80 70 -38 39 -74 70 -80 70 -6 0 -42 32 -80 70 -38 39 -74 70 -80 70 -6 0 -46 36 -90 80 -44 44 -84 80 -90 80 -6 0 -46 36 -90 80 -44 44 -84 80 -90 80 -6 0 -37 27 -70 60 -33 33 -64 60 -70 60 -6 0 -46 36 -90 80 -44 44 -84 80 -90 80 -6 0 -42 32 -80 70 -38 39 -74 70 -80 70 -6 0 -46 36 -90 80 -44 44 -84 80 -90 80 -6 0 -42 32 -80 70 -38 39 -74 70 -80 70 -6 0 -42 32 -80 70 -38 39 -74 70 -80 70 -6 0 -46 36 -90 80 -44 44 -84 80 -90 80 -6 0 -24 14 -41 31 -16 17 -56 51 -89 76 -70 52 -178 143 -314 263 -245 218 -235 210 -282 210 -36 0 -52 -7 -87 -37z"/>
<path d="M9788 713 c12 -2 32 -2 45 0 12 2 2 4 -23 4 -25 0 -35 -2 -22 -4z"/>
<path d="M8580 422 l-65 -37 49 -3 c39 -3 53 1 72 19 23 21 33 59 17 59 -5 0 -37 -17 -73 -38z"/>
</g>
<g id="layer102" fill="#ff6600" stroke="none">
<path d="M4903 8608 c-1 -106 -7 -224 -13 -263 -16 -100 -27 -175 -44 -297 -8 -58 -22 -127 -30 -153 -9 -26 -21 -77 -27 -113 -6 -37 -14 -87 -18 -112 -4 -25 -14 -67 -24 -95 -9 -27 -25 -79 -36 -115 -30 -100 -57 -173 -80 -218 -12 -23 -21 -50 -21 -61 0 -10 -13 -44 -29 -75 l-29 -55 -11 -608 c-6 -334 -14 -763 -18 -952 -5 -301 -4 -344 8 -339 15 6 289 182 344 221 63 45 234 157 240 157 3 0 93 59 200 130 107 72 196 130 199 130 2 0 65 41 140 90 75 50 139 90 142 90 3 0 105 68 228 150 123 83 226 150 229 150 3 0 108 68 232 150 124 83 229 150 233 150 4 0 75 44 158 98 130 85 747 485 989 642 499 323 1358 879 1505 975 102 67 212 139 245 160 33 21 56 40 50 41 -5 2 -86 9 -180 15 -337 22 -432 29 -575 39 -80 6 -221 15 -315 20 -162 9 -317 19 -630 40 -216 16 -424 29 -605 40 -91 6 -230 15 -310 20 -239 17 -436 30 -605 40 -313 18 -492 30 -615 40 -69 6 -192 15 -275 20 -302 19 -482 30 -565 36 l-85 6 -2 -194z"/>
<path d="M4675 3880 c-4 -6 -9 -34 -11 -63 -15 -168 -93 -900 -114 -1072 -5 -44 -21 -188 -35 -320 -14 -132 -30 -276 -35 -320 -6 -44 -19 -165 -31 -270 -11 -104 -24 -226 -29 -270 -5 -44 -16 -145 -25 -225 -23 -215 -35 -326 -45 -415 -5 -44 -16 -144 -24 -222 -9 -78 -20 -181 -26 -230 -5 -48 -10 -97 -10 -107 0 -19 7 -19 253 -10 138 5 358 10 487 10 129 1 422 9 650 17 228 9 588 21 800 27 212 6 518 15 680 20 162 5 325 10 362 10 56 0 68 3 73 18 3 11 17 24 31 30 34 16 36 15 24 -7 -5 -11 -10 -28 -9 -38 0 -10 5 -2 12 17 11 32 15 35 57 38 44 3 46 2 67 -40 13 -24 41 -103 63 -175 23 -73 44 -133 48 -133 4 0 36 28 72 61 66 63 218 175 301 223 42 24 60 27 178 33 73 3 135 11 138 16 3 6 2 8 -3 4 -10 -6 -102 68 -94 76 14 14 323 163 445 214 227 97 410 136 727 155 207 13 413 3 606 -30 l104 -18 31 60 32 61 3 195 c5 285 -20 497 -94 779 -44 169 -89 289 -173 466 -276 576 -677 1007 -1171 1259 -159 82 -303 111 -425 86 -303 -60 -552 -388 -755 -990 -120 -356 -171 -579 -196 -850 -9 -104 -7 -446 5 -554 7 -74 6 -94 -6 -112 -23 -36 -42 -37 -75 -3 -29 28 -30 34 -25 87 3 35 2 49 -3 37 -5 -11 -9 -30 -9 -42 -2 -59 -37 7 -43 80 -1 14 -5 25 -8 24 -6 -2 -48 33 -195 163 -41 36 -113 99 -160 140 -149 130 -377 331 -510 450 -45 41 -118 104 -160 140 -42 36 -114 99 -160 140 -46 41 -122 109 -170 150 -48 41 -124 109 -170 150 -46 41 -122 109 -170 150 -95 83 -185 161 -330 290 -149 132 -236 208 -330 290 -48 41 -108 96 -133 121 -55 54 -260 233 -272 237 -4 2 -11 -2 -15 -8z m4230 -755 c94 -20 246 -97 385 -194 63 -44 131 -91 150 -104 51 -34 213 -257 198 -272 -11 -11 -209 73 -290 124 -211 132 -404 191 -528 161 -40 -10 -80 -34 -169 -101 -136 -102 -292 -230 -386 -313 -36 -32 -68 -56 -72 -53 -20 21 143 389 232 522 56 84 169 199 215 217 75 31 161 35 265 13z m68 -746 l38 -10 -55 -61 c-71 -78 -97 -133 -99 -212 -1 -56 3 -69 36 -125 96 -162 148 -336 148 -501 0 -164 -40 -263 -139 -350 -53 -48 -162 -103 -247 -126 -63 -18 -341 -32 -372 -19 -12 4 22 18 102 42 201 58 322 120 411 208 104 104 109 209 24 530 -79 299 -91 425 -51 527 13 34 36 69 58 88 38 34 48 34 146 9z m886 -415 c41 -19 104 -55 139 -81 56 -40 63 -48 46 -54 -10 -4 -86 -36 -169 -71 -137 -58 -156 -63 -220 -62 -86 0 -150 28 -214 93 -33 35 -40 47 -30 53 40 24 124 78 176 112 96 65 149 67 272 10z m230 -396 c-55 -109 -137 -198 -214 -234 -84 -40 -192 -29 -318 31 -59 28 -183 122 -173 132 3 3 29 -4 58 -16 131 -52 281 -65 373 -33 28 10 104 55 170 100 66 46 121 79 123 73 2 -5 -7 -29 -19 -53z m-1828 8 c63 -20 302 -105 306 -110 12 -11 -45 -124 -81 -161 -52 -54 -103 -70 -206 -61 -135 11 -350 67 -350 91 0 15 42 86 79 132 45 57 87 90 140 109 46 17 59 17 112 0z"/>
</g>
<g id="layer103" fill="#fcfcfc" stroke="none">
<path d="M3290 10270 l-35 -7 32 -2 c17 0 35 4 38 9 3 6 5 9 3 9 -2 -1 -19 -5 -38 -9z"/>
<path d="M4049 10267 c5 -5 21 -7 37 -5 27 3 26 4 -8 9 -22 3 -34 1 -29 -4z"/>
<path d="M3595 10123 c-122 -11 -336 -48 -460 -79 -839 -212 -1617 -748 -2123 -1462 -146 -206 -299 -483 -388 -703 -40 -100 -44 -119 -44 -194 0 -91 4 -98 60 -110 65 -13 310 -96 433 -146 349 -144 705 -358 938 -566 358 -321 856 -1016 1030 -1440 19 -46 39 -83 46 -83 14 0 180 179 344 370 597 698 1014 1472 1135 2110 7 41 16 81 19 89 13 33 71 441 80 561 3 47 10 108 15 135 28 155 21 476 -16 745 -35 254 -130 459 -276 595 -94 88 -220 149 -362 174 -55 10 -336 13 -431 4z m-28 -723 c103 -26 215 -83 270 -138 77 -78 135 -219 164 -407 26 -157 9 -707 -22 -739 -5 -6 -12 1 -18 15 -5 13 -30 69 -56 124 -26 55 -64 136 -84 180 -127 273 -259 522 -297 561 -47 48 -142 96 -235 120 -96 24 -394 30 -534 11 -96 -13 -126 -14 -240 -1 -71 7 -133 14 -137 14 -22 0 0 20 75 67 172 107 263 146 362 158 33 4 114 16 180 27 251 42 426 44 572 8z m-1636 -839 c57 -17 101 -52 134 -104 17 -26 65 -102 109 -169 61 -94 75 -122 65 -129 -32 -21 -120 -42 -195 -46 -150 -10 -227 32 -366 198 -53 63 -119 138 -148 167 -41 42 -50 56 -39 63 8 5 21 9 29 10 8 0 47 7 85 14 79 16 269 13 326 -4z m1174 -4 c88 -22 90 -23 115 -67 21 -39 25 -57 24 -130 -1 -156 -41 -230 -280 -516 -185 -221 -298 -373 -338 -452 -102 -202 36 -491 362 -763 125 -105 124 -103 83 -95 -18 3 -76 25 -128 47 -328 144 -552 412 -553 661 0 132 59 296 162 445 71 104 222 253 341 337 54 38 109 83 122 101 63 81 73 209 26 340 -15 44 -31 88 -35 98 -10 21 -11 21 99 -6z m-1758 -299 c22 -35 64 -108 94 -163 61 -112 118 -176 199 -222 75 -43 204 -80 330 -96 l105 -14 -39 -17 c-135 -60 -356 -58 -501 4 -92 39 -166 132 -205 255 -31 97 -52 315 -31 315 5 0 27 -28 48 -62z m1943 -1019 c112 -12 201 -28 225 -38 100 -44 176 -203 179 -376 l1 -70 -85 1 c-154 3 -424 88 -509 160 -81 70 -121 204 -92 312 l12 43 42 -5 c23 -3 125 -15 227 -27z"/>
<path d="M1000 8945 c-13 -14 -22 -27 -19 -29 2 -2 14 10 27 25 29 36 24 38 -8 4z"/>
<path d="M5323 8773 c9 -2 25 -2 35 0 9 3 1 5 -18 5 -19 0 -27 -2 -17 -5z"/>
<path d="M4853 8620 c0 -36 2 -50 4 -32 2 17 2 47 0 65 -2 17 -4 3 -4 -33z"/>
<path d="M7458 8633 c12 -2 30 -2 40 0 9 3 -1 5 -23 4 -22 0 -30 -2 -17 -4z"/>
<path d="M8683 8553 c15 -2 37 -2 50 0 12 2 0 4 -28 4 -27 0 -38 -2 -22 -4z"/>
<path d="M4843 8460 c0 -41 2 -58 4 -37 2 20 2 54 0 75 -2 20 -4 3 -4 -38z"/>
<path d="M4792 8110 c0 -19 2 -27 5 -17 2 9 2 25 0 35 -3 9 -5 1 -5 -18z"/>
<path d="M449 7992 c-3 -20 -2 -29 4 -23 5 5 7 19 5 32 -3 20 -5 19 -9 -9z"/>
<path d="M414 7836 c-3 -8 -4 -31 -2 -52 3 -36 4 -35 8 14 5 53 4 63 -6 38z"/>
<path d="M490 7274 c0 -6 19 -28 43 -49 l42 -40 -40 45 c-22 25 -41 47 -42 49 -2 2 -3 0 -3 -5z"/>
<path d="M1698 6815 c17 -14 33 -25 37 -25 3 0 -7 11 -23 25 -17 14 -33 25 -37 25 -3 0 7 -11 23 -25z"/>
<path d="M902 6590 c0 -19 2 -27 5 -17 2 9 2 25 0 35 -3 9 -5 1 -5 -18z"/>
<path d="M2215 6410 c38 -38 72 -70 74 -70 3 0 -26 32 -64 70 -38 39 -72 70 -74 70 -3 0 26 -31 64 -70z"/>
<path d="M3130 5173 l-105 -108 110 105 c60 58 111 106 114 108 2 1 0 2 -5 2 -5 0 -57 -48 -114 -107z"/>
<path d="M8542 3786 c-267 -68 -492 -345 -679 -836 -58 -153 -146 -435 -174 -555 -59 -254 -70 -332 -83 -635 -3 -75 10 -379 19 -426 4 -24 0 -37 -20 -58 l-25 -27 27 -29 c14 -17 31 -30 37 -30 7 0 38 -27 71 -60 33 -33 65 -60 71 -60 6 0 18 -8 25 -17 8 -9 55 -50 104 -90 50 -41 108 -91 130 -112 22 -20 61 -53 86 -72 26 -18 50 -43 55 -54 5 -11 23 -26 39 -34 17 -8 69 -49 118 -93 l87 -78 -52 0 c-29 0 -109 -7 -178 -14 -69 -7 -149 -10 -178 -6 -53 7 -262 1 -262 -7 0 -2 9 -21 20 -41 11 -20 38 -97 60 -169 23 -73 44 -133 48 -133 4 0 36 28 72 61 66 63 218 175 301 223 42 24 60 27 178 33 73 3 135 11 138 16 3 6 2 8 -3 4 -10 -6 -102 68 -94 76 14 14 323 163 445 214 227 97 410 136 727 155 207 13 413 3 606 -30 l104 -18 31 60 32 61 3 195 c5 285 -20 497 -94 779 -44 169 -89 289 -173 466 -198 412 -450 738 -777 1006 -160 131 -440 292 -563 324 -88 22 -214 28 -279 11z m363 -661 c94 -20 246 -97 385 -194 63 -44 131 -91 150 -104 51 -34 213 -257 198 -272 -11 -11 -209 73 -290 124 -211 132 -404 191 -528 161 -40 -10 -80 -34 -169 -101 -136 -102 -292 -230 -386 -313 -36 -32 -68 -56 -72 -53 -20 21 143 389 232 522 56 84 169 199 215 217 75 31 161 35 265 13z m68 -746 l38 -10 -55 -61 c-71 -78 -97 -133 -99 -212 -1 -56 3 -69 36 -125 96 -162 148 -336 148 -501 0 -164 -40 -263 -139 -350 -53 -48 -162 -103 -247 -126 -63 -18 -341 -32 -372 -19 -12 4 22 18 102 42 201 58 322 120 411 208 104 104 109 209 24 530 -79 299 -91 425 -51 527 13 34 36 69 58 88 38 34 48 34 146 9z m886 -415 c41 -19 104 -55 139 -81 56 -40 63 -48 46 -54 -10 -4 -86 -36 -169 -71 -137 -58 -156 -63 -220 -62 -86 0 -150 28 -214 93 -33 35 -40 47 -30 53 40 24 124 78 176 112 96 65 149 67 272 10z m230 -396 c-55 -109 -137 -198 -214 -234 -84 -40 -192 -29 -318 31 -59 28 -183 122 -173 132 3 3 29 -4 58 -16 131 -52 281 -65 373 -33 28 10 104 55 170 100 66 46 121 79 123 73 2 -5 -7 -29 -19 -53z m-1828 8 c63 -20 302 -105 306 -110 12 -11 -45 -124 -81 -161 -52 -54 -103 -70 -206 -61 -135 11 -350 67 -350 91 0 15 42 86 79 132 45 57 87 90 140 109 46 17 59 17 112 0z"/>
<path d="M9813 3650 c0 -47 2 -66 4 -42 2 23 2 61 0 85 -2 23 -4 4 -4 -43z"/>
<path d="M1092 3690 c0 -19 2 -27 5 -17 2 9 2 25 0 35 -3 9 -5 1 -5 -18z"/>
<path d="M7483 1720 c0 -25 2 -35 4 -22 2 12 2 32 0 45 -2 12 -4 2 -4 -23z"/>
<path d="M7502 1378 c-5 -23 -6 -47 -3 -53 3 -5 9 12 13 40 9 62 3 71 -10 13z"/>
<path d="M7650 479 c-6 -11 -10 -27 -8 -35 2 -8 8 1 14 20 12 40 10 46 -6 15z"/>
<path d="M5183 363 c15 -2 39 -2 55 0 15 2 2 4 -28 4 -30 0 -43 -2 -27 -4z"/>
<path d="M7087 343 c18 -2 50 -2 70 0 21 2 7 4 -32 4 -38 0 -55 -2 -38 -4z"/>
<path d="M6053 313 c26 -2 68 -2 95 0 26 2 4 3 -48 3 -52 0 -74 -1 -47 -3z"/>
</g>


</svg>