<svg version="1.0" xmlns="http://www.w3.org/2000/svg" width="200" height="200" viewBox="0 0 2000 2000"><path d="M0 1000V0h2000v2000H0V1000z" fill="#010001"/><path d="M950 1342c0-219-2-401-4-403s-52-3-110-1l-106 3v549H610V298l253 4 252 3 63 29c73 34 132 95 158 162l17 44h187v120h-190v23c0 41-47 122-93 163-39 35-91 58-174 80-8 2-13 22-13 54v50h470v120h-470v590H950v-398zm0-662V540h271l-18-31c-43-75-128-98-355-99H730v410h220V680zm178 111c20-10 44-27 53-37 16-19 49-78 49-89 0-3-36-5-80-5h-80v75c0 45 4 75 10 75s27-9 48-19z" fill="#fdfefd"/></svg>