<!DOCTYPE svg PUBLIC "-//W3C//DTD SVG 20010904//EN" "http://www.w3.org/TR/2001/REC-SVG-20010904/DTD/svg10.dtd">
<svg version="1.0" xmlns="http://www.w3.org/2000/svg" width="384px" height="384px" viewBox="0 0 3840 3840" preserveAspectRatio="xMidYMid meet">
<g id="layer101" fill="#1c1b37" stroke="none">
</g>
<g id="layer102" fill="#2a2a46" stroke="none">
<path d="M0 1920 l0 -1920 1920 0 1920 0 0 1920 0 1920 -1920 0 -1920 0 0 -1920z"/>
</g>
<g id="layer103" fill="#404069" stroke="none">
<path d="M0 1920 l0 -1920 1920 0 1920 0 0 665 c0 366 -3 665 -6 665 -3 0 -45 -26 -92 -59 -48 -32 -206 -138 -352 -235 l-265 -176 -5 113 -5 112 -327 3 -328 2 -240 320 -240 320 477 2 478 3 0 120 0 120 -461 5 -461 5 251 350 252 350 299 5 300 5 0 130 0 130 -385 3 -385 2 -276 -392 c-152 -216 -291 -416 -310 -444 l-34 -52 -60 92 c-33 50 -125 181 -205 291 -79 110 -193 268 -252 350 l-108 150 -152 5 -151 5 57 42 c31 24 69 49 84 57 16 8 80 49 143 92 63 42 303 203 534 357 231 154 433 291 448 304 l29 23 -1046 0 -1046 0 0 -1920z m1840 -443 c50 -71 90 -130 88 -132 -4 -4 -160 -110 -398 -270 -113 -76 -218 -148 -235 -160 -16 -13 -41 -28 -54 -35 -22 -11 -21 -8 11 36 105 145 415 587 445 637 20 32 40 56 44 55 4 -2 48 -61 99 -131z"/>
</g>
<g id="layer104" fill="#fefefe" stroke="none">
<path d="M756 2952 c-3 -5 144 -209 325 -453 519 -696 484 -646 466 -672 -8 -12 -168 -238 -356 -501 -191 -268 -338 -483 -333 -488 5 -5 82 -7 173 -6 l164 3 177 250 c98 138 219 311 270 385 50 74 95 135 99 135 4 0 41 -47 82 -105 41 -58 171 -231 289 -385 l213 -280 395 0 395 0 0 125 0 125 -327 3 -328 2 -240 320 -240 320 477 2 478 3 0 120 0 120 -461 5 -461 5 251 350 252 350 299 5 300 5 0 130 0 130 -385 3 -385 2 -276 -392 c-152 -216 -291 -416 -310 -444 l-34 -52 -60 92 c-33 50 -132 190 -219 311 -88 121 -202 280 -254 353 l-95 132 -168 0 c-92 0 -170 -4 -173 -8z"/>
</g>


</svg>