<svg xmlns="http://www.w3.org/2000/svg" viewBox="0 0 256 256" clip-path="url(#clip)" width="512" height="512"><defs><clipPath id="clip" clipPathUnits="objectBoundingBox"><rect x="0" y="0" width="256" height="256"/></clipPath></defs><rect x="0" y="0" width="256" height="256" fill="rgb(255, 255, 255)"/><path d="M566,169L25,203L38,31Z" fill="rgb(255, 19, 19)" fill-opacity="0.83"/><path d="M344,129L231,74L221,232Z" fill="rgb(255, 254, 254)" fill-opacity="0.98"/><path d="M120,56L147,-73L-2,68Z" fill="rgb(255, 253, 253)" fill-opacity="0.98"/><path d="M158,127L106,163L111,99Z" fill="rgb(255, 255, 255)" fill-opacity="0.75"/><path d="M-14,160L98,213L-5,220Z" fill="rgb(255, 254, 254)" fill-opacity="0.95"/><path d="M232,64L154,58L166,204Z" fill="rgb(255, 0, 0)" fill-opacity="0.86"/><path d="M21,201L151,199L71,195Z" fill="rgb(255, 250, 250)" fill-opacity="0.95"/><path d="M149,57L35,69L43,193Z" fill="rgb(255, 0, 0)" fill-opacity="0.96"/><path d="M43,193L206,197L28,105Z" fill="rgb(255, 0, 0)" fill-opacity="0.80"/><path d="M113,101L153,55L186,137Z" fill="rgb(255, 0, 0)" fill-opacity="0.75"/><path d="M230,102L265,88L189,-23Z" fill="rgb(255, 253, 253)" fill-opacity="0.97"/><path d="M40,43L44,74L17,71Z" fill="rgb(255, 255, 255)" fill-opacity="0.53"/><path d="M127,137L110,161L108,142Z" fill="rgb(255, 255, 255)" fill-opacity="0.57"/><path d="M102,162L226,89L218,187Z" fill="rgb(255, 0, 0)" fill-opacity="0.82"/><path d="M177,196L28,120L111,197Z" fill="rgb(255, 2, 2)" fill-opacity="0.96"/><path d="M26,143L-3,220L42,204Z" fill="rgb(255, 253, 253)" fill-opacity="0.99"/><path d="M278,188L245,147L212,194Z" fill="rgb(255, 253, 253)" fill-opacity="1.00"/><path d="M130,109L227,165L228,110Z" fill="rgb(255, 0, 0)" fill-opacity="0.80"/><path d="M112,61L68,58L41,67Z" fill="rgb(255, 0, 0)" fill-opacity="0.67"/><path d="M30,136L79,59L32,81Z" fill="rgb(255, 1, 1)" fill-opacity="0.90"/><path d="M107,97L150,122L116,155Z" fill="rgb(255, 255, 255)" fill-opacity="0.73"/><path d="M109,162L109,113L30,143Z" fill="rgb(255, 0, 0)" fill-opacity="0.89"/><path d="M169,268L163,196L213,194Z" fill="rgb(255, 252, 252)" fill-opacity="0.99"/><path d="M238,10L237,83L177,39Z" fill="rgb(255, 254, 254)" fill-opacity="1.00"/><path d="M171,58L229,145L205,62Z" fill="rgb(255, 0, 0)" fill-opacity="0.63"/><path d="M227,96L208,193L164,196Z" fill="rgb(255, 0, 0)" fill-opacity="0.83"/><path d="M34,76L53,60L102,67Z" fill="rgb(255, 0, 0)" fill-opacity="0.63"/><path d="M67,201L13,183L32,183Z" fill="rgb(255, 255, 255)" fill-opacity="0.61"/><path d="M31,108L1,58L25,132Z" fill="rgb(255, 253, 253)" fill-opacity="0.78"/><path d="M111,156L162,126L112,116Z" fill="rgb(255, 255, 255)" fill-opacity="0.65"/></svg>